<svg width="24" height="28" viewBox="0 0 24 28" fill="none" xmlns="http://www.w3.org/2000/svg">
<path d="M21.4899 2.50828C18.1456 -0.836093 12.6994 -0.836093 9.3586 2.50828L0.0923406 11.7674C0.0319856 11.8278 3.2822e-05 11.9094 3.2822e-05 11.9947C3.2822e-05 12.0799 0.0319856 12.1615 0.0923406 12.2219L1.4024 13.5319C1.46228 13.5915 1.54334 13.625 1.62784 13.625C1.71234 13.625 1.7934 13.5915 1.85328 13.5319L11.1195 4.27277C12.2698 3.12248 13.8 2.49053 15.426 2.49053C17.0521 2.49053 18.5822 3.12248 19.729 4.27277C20.8793 5.42307 21.5112 6.95324 21.5112 8.57572C21.5112 10.2018 20.8793 11.7284 19.729 12.8787L10.2852 22.3189L8.75505 23.8491C7.32428 25.2798 4.99884 25.2798 3.56807 23.8491C2.87577 23.1568 2.49589 22.2372 2.49589 21.2574C2.49589 20.2775 2.87577 19.358 3.56807 18.6656L12.9373 9.29998C13.1752 9.06566 13.4876 8.9343 13.8213 8.9343H13.8249C14.1586 8.9343 14.4675 9.06566 14.7018 9.29998C14.9397 9.53785 15.0675 9.85028 15.0675 10.184C15.0675 10.5142 14.9361 10.8266 14.7018 11.0609L7.04381 18.7118C6.98345 18.7722 6.9515 18.8538 6.9515 18.939C6.9515 19.0242 6.98345 19.1059 7.04381 19.1662L8.35386 20.4763C8.41375 20.5359 8.49481 20.5694 8.57931 20.5694C8.66381 20.5694 8.74487 20.5359 8.80475 20.4763L16.4592 12.8219C17.1657 12.1154 17.5527 11.1781 17.5527 10.1805C17.5527 9.18282 17.1621 8.242 16.4592 7.53904C15 6.07987 12.6284 6.08342 11.1692 7.53904L10.2604 8.45146L1.80358 16.9047C1.22961 17.4753 0.77463 18.1542 0.465033 18.902C0.155436 19.6498 -0.00261895 20.4516 3.2822e-05 21.2609C3.2822e-05 22.9047 0.642635 24.4491 1.80358 25.61C3.00713 26.81 4.58346 27.41 6.15979 27.41C7.73611 27.41 9.31244 26.81 10.5124 25.61L21.4899 14.6396C23.1053 13.0207 24 10.8657 24 8.57572C24.0035 6.28224 23.1089 4.12721 21.4899 2.50828Z" fill="#878787"/>
</svg>
