<svg width="42" height="42" viewBox="0 0 42 42" fill="none" xmlns="http://www.w3.org/2000/svg">
<path d="M23.25 21C23.25 21.5967 23.0129 22.169 22.591 22.591C22.169 23.0129 21.5967 23.25 21 23.25C20.4033 23.25 19.831 23.0129 19.409 22.591C18.9871 22.169 18.75 21.5967 18.75 21C18.75 20.4033 18.9871 19.831 19.409 19.409C19.831 18.9871 20.4033 18.75 21 18.75C21.5967 18.75 22.169 18.9871 22.591 19.409C23.0129 19.831 23.25 20.4033 23.25 21ZM13.8751 21C13.8751 21.5967 13.638 22.169 13.2161 22.591C12.7941 23.0129 12.2218 23.25 11.6251 23.25C11.0284 23.25 10.4561 23.0129 10.0341 22.591C9.61219 22.169 9.37514 21.5967 9.37514 21C9.37514 20.4033 9.61219 19.831 10.0341 19.409C10.4561 18.9871 11.0284 18.75 11.6251 18.75C12.2218 18.75 12.7941 18.9871 13.2161 19.409C13.638 19.831 13.8751 20.4033 13.8751 21ZM32.6249 21C32.6249 21.5967 32.3878 22.169 31.9659 22.591C31.5439 23.0129 30.9716 23.25 30.3749 23.25C29.7782 23.25 29.2059 23.0129 28.7839 22.591C28.362 22.169 28.1249 21.5967 28.1249 21C28.1249 20.4033 28.362 19.831 28.7839 19.409C29.2059 18.9871 29.7782 18.75 30.3749 18.75C30.9716 18.75 31.5439 18.9871 31.9659 19.409C32.3878 19.831 32.6249 20.4033 32.6249 21ZM1.63149 12.8625C2.69085 10.3453 4.20958 8.08594 6.1455 6.14531C8.06786 4.21592 10.35 2.68229 12.8626 1.63125C15.4407 0.548438 18.1782 0 21 0H21.0937C23.9343 0.0140625 26.6859 0.576563 29.2733 1.68281C31.7644 2.74463 34.0252 4.28099 35.9295 6.20625C37.8467 8.14219 39.3513 10.3922 40.3919 12.9C41.4701 15.4969 42.0138 18.2578 41.9997 21.0984C41.9838 24.3538 41.2137 27.5611 39.7498 30.4688V37.5938C39.7498 38.1656 39.5226 38.7141 39.1182 39.1185C38.7138 39.5228 38.1654 39.75 37.5935 39.75H30.4639C27.5563 41.2139 24.349 41.9841 21.0937 42H20.9953C18.1875 42 15.4641 41.4562 12.9001 40.3922C10.4002 39.3537 8.12657 37.8379 6.20644 35.9297C4.27052 34.0125 2.7471 31.7719 1.68305 29.2734C0.576817 26.6859 0.0143242 23.9344 0.000263214 21.0938C-0.0138016 18.2391 0.539318 15.4688 1.63149 12.8625ZM8.71421 33.3938C12.0001 36.6469 16.3594 38.4375 21 38.4375H21.0797C23.9062 38.4234 26.714 37.7203 29.1936 36.3984L29.5874 36.1875H36.1873V29.5875L36.3982 29.1937C37.7201 26.7141 38.4232 23.9062 38.4373 21.0797C38.456 16.4062 36.6701 12.0187 33.3936 8.71406C30.1218 5.40937 25.7484 3.58125 21.075 3.5625H20.9953C18.6516 3.5625 16.3782 4.01719 14.236 4.91719C12.1454 5.79375 10.2704 7.05469 8.65797 8.66719C7.05017 10.275 5.78456 12.1547 4.90801 14.2453C3.99865 16.4109 3.54396 18.7078 3.55334 21.0797C3.58147 25.7484 5.41426 30.1219 8.71421 33.3938Z" fill="white"/>
</svg>
