<svg width="44" height="42" viewBox="0 0 44 42" fill="none" xmlns="http://www.w3.org/2000/svg">
<path d="M6.23562 3.38734C5.52087 3.38734 4.8354 3.67127 4.33 4.17668C3.82459 4.68208 3.54066 5.36755 3.54066 6.0823V27.642C3.54066 28.3567 3.82459 29.0422 4.33 29.5476C4.8354 30.053 5.52087 30.3369 6.23562 30.3369H32.0695C33.4989 30.3372 34.8696 30.9053 35.8802 31.9162L41.2701 37.3061V6.0823C41.2701 5.36755 40.9861 4.68208 40.4807 4.17668C39.9753 3.67127 39.2899 3.38734 38.5751 3.38734H6.23562ZM38.5751 0.692383C40.0046 0.692383 41.3755 1.26025 42.3864 2.27105C43.3972 3.28186 43.965 4.6528 43.965 6.0823V40.5589C43.965 40.8255 43.8858 41.0861 43.7376 41.3078C43.5893 41.5294 43.3787 41.702 43.1323 41.8039C42.8859 41.9058 42.6148 41.9322 42.3533 41.8799C42.0919 41.8277 41.8518 41.699 41.6635 41.5102L33.9748 33.8215C33.4695 33.3161 32.7842 33.032 32.0695 33.0319H6.23562C4.80612 33.0319 3.43518 32.464 2.42437 31.4532C1.41357 30.4424 0.845703 29.0715 0.845703 27.642V6.0823C0.845703 4.6528 1.41357 3.28186 2.42437 2.27105C3.43518 1.26025 4.80612 0.692383 6.23562 0.692383L38.5751 0.692383Z" fill="white"/>
<path d="M14.3196 16.8622C14.3196 17.5769 14.0357 18.2624 13.5303 18.7678C13.0249 19.2732 12.3394 19.5572 11.6246 19.5572C10.9099 19.5572 10.2244 19.2732 9.71902 18.7678C9.21362 18.2624 8.92969 17.5769 8.92969 16.8622C8.92969 16.1474 9.21362 15.462 9.71902 14.9566C10.2244 14.4512 10.9099 14.1672 11.6246 14.1672C12.3394 14.1672 13.0249 14.4512 13.5303 14.9566C14.0357 15.462 14.3196 16.1474 14.3196 16.8622ZM25.0994 16.8622C25.0994 17.5769 24.8155 18.2624 24.3101 18.7678C23.8047 19.2732 23.1192 19.5572 22.4045 19.5572C21.6897 19.5572 21.0043 19.2732 20.4989 18.7678C19.9935 18.2624 19.7095 17.5769 19.7095 16.8622C19.7095 16.1474 19.9935 15.462 20.4989 14.9566C21.0043 14.4512 21.6897 14.1672 22.4045 14.1672C23.1192 14.1672 23.8047 14.4512 24.3101 14.9566C24.8155 15.462 25.0994 16.1474 25.0994 16.8622ZM35.8793 16.8622C35.8793 17.5769 35.5953 18.2624 35.0899 18.7678C34.5845 19.2732 33.8991 19.5572 33.1843 19.5572C32.4696 19.5572 31.7841 19.2732 31.2787 18.7678C30.7733 18.2624 30.4893 17.5769 30.4893 16.8622C30.4893 16.1474 30.7733 15.462 31.2787 14.9566C31.7841 14.4512 32.4696 14.1672 33.1843 14.1672C33.8991 14.1672 34.5845 14.4512 35.0899 14.9566C35.5953 15.462 35.8793 16.1474 35.8793 16.8622Z" fill="white"/>
</svg>
