<svg width="265" height="270" viewBox="0 0 265 270" fill="none" xmlns="http://www.w3.org/2000/svg">
<path d="M6.32746 267.721C11.4105 273.229 32.3473 263.623 48.8728 255.92C61.2558 250.165 110.81 229.833 135.442 219.286C142.092 216.442 151.766 212.725 158.73 203.567C164.91 195.416 181.301 160.797 148.295 125.731C114.796 90.1274 80.2893 99.9576 67.3913 109.094C59.8003 114.468 53.62 126.582 50.8434 132.74C39.1098 158.76 22.3827 206.433 15.5755 225.175C10.582 238.991 1.28919 262.257 6.32746 267.721V267.721Z" fill="#FFC107"/>
<path d="M47.5286 140.578C47.8421 144.474 48.6258 150.811 51.3129 163.015C53.1491 171.39 56.1496 180.168 58.5904 185.967C65.9127 203.411 76.1907 210.442 86.6032 216.085C104.293 225.669 116.318 227.46 116.318 227.46L101.897 233.349C101.897 233.349 93.1641 231.536 81.2514 225.669C69.8985 220.071 58.0754 210.599 49.4319 192.058C45.6924 184.019 43.5204 176.227 42.2664 170.046C40.7213 162.388 40.475 158.044 40.475 158.044L47.5286 140.578V140.578ZM29.8163 185.99C29.8163 185.99 31.6077 200.522 43.6099 218.862C57.6723 240.313 77.3104 243.829 77.3104 243.829L64.2556 249.203C64.2556 249.203 49.6782 244.747 35.8174 225.826C27.174 214.025 24.7556 199.918 24.7556 199.918L29.8163 185.99V185.99ZM17.3885 220.429C17.3885 220.429 20.6578 232.969 27.8233 242.329C36.3548 253.503 47.2151 256.749 47.2151 256.749L37.2057 261.183C37.2057 261.183 29.6147 259.593 21.3072 249.069C14.9926 241.075 13.2012 231.894 13.2012 231.894L17.3885 220.429V220.429Z" fill="#FF8F00"/>
<path opacity="0.44" d="M11.9464 252.27C11.4986 251.262 11.4986 250.12 11.9688 249.135L69.002 130.859L78.3844 166.127L18.373 252.807C16.7608 255.226 13.1332 254.912 11.9464 252.27V252.27Z" fill="#FFFDE7"/>
<path d="M82.9092 177.973C109.556 209.143 139.898 205.247 149.997 197.365C160.118 189.46 168.112 162.299 141.577 131.643C113.766 99.5329 82.2822 108.691 75.0047 115.633C67.7272 122.575 58.4568 149.378 82.9092 177.973V177.973Z" fill="url(#paint0_linear_29_57)"/>
<path d="M174.427 190.803C164.709 182.652 159.536 184.108 152.594 186.996C143.637 190.713 129.553 193.468 110.43 186.996L116.185 173.135C127.537 176.965 135.755 175.106 142.854 170.919C151.99 165.545 164.485 158.177 183.921 174.501C192.027 181.309 200.335 185.832 206.426 183.772C210.859 182.294 213.21 175.688 214.397 170.426C214.509 169.956 214.688 168.612 214.823 167.425C215.897 159.207 217.689 141.473 230.9 132.404C245.03 122.708 259.876 122.708 259.876 122.708L262.563 149.4C255.733 148.392 250.986 149.78 246.978 151.997C231.886 160.394 245.03 192.639 221.54 203.477C198.946 213.979 180.473 195.864 174.427 190.803V190.803Z" fill="#03A9F4"/>
<path d="M91.3059 156.767L81.5876 148.057C99.4343 128.127 94.7319 113.483 91.3059 102.824C90.6117 100.674 89.9623 98.6367 89.5369 96.6886C88.0142 89.7917 87.7007 83.7906 88.1709 78.5508C81.3189 70.0193 78.2959 61.0848 78.0944 60.4802C73.9294 47.8733 77.0643 35.58 84.2523 24.0479C98.7849 0.647949 125.096 0.647949 125.096 0.647949L133.874 24.1375C127.201 23.8688 105.323 24.2047 98.6057 34.7962C90.1191 48.142 95.6947 56.3824 96.0978 57.3229C97.7325 55.1956 99.3895 53.4938 100.867 52.1727C111.593 42.6559 120.908 41.29 126.842 41.8274C133.515 42.432 139.561 45.7908 143.883 51.2994C148.608 57.3453 150.556 65.205 149.056 72.3481C147.6 79.3121 142.965 85.2013 136.001 88.9408C123.842 95.4794 113.721 94.5837 106.936 92.3221C106.98 92.4788 107.003 92.6579 107.048 92.8147C107.294 93.9343 107.787 95.5018 108.369 97.3155C112.332 109.587 119.699 129.068 91.3059 156.767V156.767ZM107.764 72.7288C109.063 73.6693 110.429 74.453 111.84 75.0128C116.542 76.8938 121.67 76.2668 127.492 73.1319C130.918 71.2957 131.321 69.3252 131.455 68.6758C131.858 66.7277 131.187 64.2421 129.731 62.3835C128.455 60.7489 126.977 59.898 125.208 59.7189C121.849 59.4278 117.303 61.555 112.758 65.608C110.586 67.5562 108.929 69.9521 107.764 72.7288Z" fill="#F44336"/>
<path d="M130.204 160.417L116.299 160.036C116.299 160.036 122.905 122.731 144.289 116.461C148.297 115.296 152.686 114.11 157.098 113.46C159.718 113.057 163.86 112.453 165.898 111.691C166.368 108.176 164.89 103.697 163.233 98.6142C161.934 94.6732 160.591 90.6202 159.874 86.1865C158.486 77.543 160.792 69.9073 166.368 64.6451C173.175 58.2633 184.17 56.2256 196.575 59.047C203.651 60.6592 208.869 64.13 213.459 67.1754C220.02 71.5419 223.849 73.7587 231.866 68.3622C241.561 61.8236 228.887 36.2292 222.147 21.4503L247.294 10.9707C250.675 18.3602 266.999 56.3823 256.228 78.0805C252.601 85.3804 246.353 90.2171 238.158 92.0309C220.334 96.0167 209.899 89.0751 202.285 84.0144C198.68 81.6184 195.523 79.7375 192.097 78.7522C168.294 71.9674 201.524 106.989 185.961 122.731C176.624 132.158 153.806 134.643 152.328 135.002C137.639 138.54 130.204 160.417 130.204 160.417V160.417Z" fill="#F48FB1"/>
<path d="M88.1511 78.5508C87.7256 83.4771 87.5241 86.4105 88.8005 92.8147C94.9584 97.3379 108.371 97.3379 108.371 97.3379C107.789 95.5242 107.274 93.9567 107.05 92.8371C107.005 92.6803 106.983 92.5012 106.938 92.3444C93.3013 85.5372 88.1511 78.5508 88.1511 78.5508V78.5508Z" fill="#C92B27"/>
<path d="M60.2474 100.607L37.0938 89.2541L48.6258 72.5942L66.786 84.6189L60.2474 100.607Z" fill="#FFC107"/>
<path d="M26.121 69.1686C14.2979 67.5787 2.25083 57.547 0.929688 56.405L12.5513 42.7681C16.0669 45.7462 23.5235 50.7397 28.517 51.4115L26.121 69.1686Z" fill="#FB8C00"/>
<path d="M46.9928 39.3196L29.9746 33.7439C31.9227 27.7875 32.4378 21.3609 31.4301 15.1583L49.12 12.3145C50.5755 21.3162 49.8366 30.6538 46.9928 39.3196V39.3196Z" fill="#03A9F4"/>
<path d="M153.271 26.0078L170.771 22.1787L175.825 45.2786L158.325 49.1077L153.271 26.0078Z" fill="#FB8C00"/>
<path d="M196.687 31.4825L184.371 18.4726C190.82 12.3595 192.298 4.36545 192.298 4.27588L209.988 7.16449C209.764 8.5752 207.502 21.2493 196.687 31.4825V31.4825Z" fill="#FFC107"/>
<path d="M203.523 100.473L219.169 95.5825L224.512 112.681L208.866 117.572L203.523 100.473Z" fill="#FB8C00"/>
<path d="M208.084 244.792L190.282 242.687C191.043 236.35 186.318 228.58 185.02 226.856L199.351 216.107C200.425 217.518 209.763 230.438 208.084 244.792V244.792Z" fill="#F44336"/>
<path d="M259.18 222.086C252.485 221.078 245.633 220.675 238.87 220.921L238.266 203.008C246.125 202.739 254.075 203.187 261.845 204.373L259.18 222.086V222.086Z" fill="#FB8C00"/>
<path d="M235.096 246.744L247.68 233.996L265.001 251.099L252.416 263.845L235.096 246.744Z" fill="#F48FB1"/>
<path d="M198.125 133.51L211.068 148.309L196.269 161.252L183.326 146.453L198.125 133.51Z" fill="#F44336"/>
<defs>
<linearGradient id="paint0_linear_29_57" x1="156.208" y1="130.163" x2="89.553" y2="170.156" gradientUnits="userSpaceOnUse">
<stop offset="0.024" stop-color="#8F4700"/>
<stop offset="1" stop-color="#703E2D"/>
</linearGradient>
</defs>
</svg>
