<svg width="274" height="269" viewBox="0 0 274 269" fill="none" xmlns="http://www.w3.org/2000/svg">
<path d="M267.126 263.069C272.718 258.078 263.461 236.985 256.033 220.334C250.484 207.857 230.977 157.972 220.84 133.169C218.107 126.473 214.551 116.739 205.51 109.624C197.463 103.309 163.121 86.3457 127.512 118.766C91.3569 151.669 100.613 186.334 109.534 199.382C114.781 207.061 126.792 213.441 132.902 216.32C158.724 228.484 206.113 245.999 224.74 253.117C238.471 258.339 261.58 268.016 267.126 263.069V263.069Z" fill="#FFC107"/>
<path d="M140.685 219.763C144.586 219.514 150.935 218.836 163.182 216.352C171.586 214.655 180.412 211.8 186.251 209.456C203.814 202.424 211.015 192.264 216.83 181.947C226.706 164.418 228.696 152.425 228.696 152.425L234.345 166.941C234.345 166.941 232.387 175.643 226.323 187.457C220.538 198.715 210.871 210.38 192.189 218.714C184.089 222.32 176.262 224.362 170.062 225.514C162.379 226.931 158.031 227.106 158.031 227.106L140.685 219.763V219.763ZM185.796 238.227C185.796 238.227 200.357 236.677 218.893 224.98C240.575 211.276 244.416 191.699 244.416 191.699L249.572 204.841C249.572 204.841 244.875 219.342 225.726 232.887C213.784 241.334 199.638 243.518 199.638 243.518L185.796 238.227V238.227ZM220.025 251.224C220.025 251.224 232.617 248.163 242.095 241.154C253.408 232.809 256.835 222.004 256.835 222.004L261.102 232.086C261.102 232.086 259.386 239.649 248.726 247.781C240.628 253.962 231.419 255.601 231.419 255.601L220.025 251.224V251.224Z" fill="#FF8F00"/>
<path opacity="0.44" d="M251.771 257.194C250.756 257.625 249.614 257.606 248.637 257.119L131.323 198.131L166.742 189.335L252.415 250.777C254.806 252.429 254.433 256.051 251.771 257.194V257.194Z" fill="#FFFDE7"/>
<path d="M178.66 185.009C210.268 158.883 206.876 128.481 199.162 118.253C191.427 108.002 164.402 99.5579 133.31 125.581C100.743 152.855 109.378 184.486 116.198 191.878C123.017 199.27 149.664 208.984 178.66 185.009V185.009Z" fill="url(#paint0_linear_29_58)"/>
<path d="M193.007 93.7171C184.696 103.299 186.065 108.495 188.838 115.483C192.406 124.501 194.927 138.629 188.139 157.642L174.375 151.658C178.392 140.371 176.67 132.123 172.601 124.956C167.38 115.732 160.221 103.117 176.865 83.9536C183.806 75.9616 188.466 67.7303 186.508 61.6062C185.103 57.1486 178.538 54.6881 173.296 53.4142C172.828 53.2945 171.487 53.0931 170.303 52.939C162.104 51.728 144.401 49.6426 135.553 36.2825C126.093 21.994 126.339 7.14995 126.339 7.14995L153.071 4.90611C151.951 11.7181 153.26 16.4877 155.41 20.5321C163.556 35.7618 196.014 23.1543 206.461 46.8204C216.587 69.5854 198.167 87.756 193.007 93.7171V93.7171Z" fill="#03A9F4"/>
<path d="M157.598 176.262L148.727 185.834C129.097 167.659 114.376 172.118 103.662 175.367C101.501 176.025 99.4531 176.64 97.4982 177.034C90.5771 178.442 84.5715 178.655 79.3403 178.098C70.6963 184.808 61.7128 187.682 61.105 187.874C48.4307 191.829 36.1911 188.49 24.7799 181.112C1.62425 166.193 2.06079 139.886 2.06079 139.886L25.6927 131.499C25.3133 138.167 25.2862 160.047 35.7648 166.939C48.968 175.646 57.2998 170.208 58.2468 169.82C56.1469 168.151 54.4729 166.466 53.1764 164.966C43.839 154.084 42.6278 144.747 43.2636 138.823C43.9788 132.161 47.4375 126.172 53.0169 121.942C59.1404 117.318 67.0314 115.501 74.1486 117.119C81.0875 118.69 86.899 123.422 90.5224 130.447C96.8584 142.713 95.7949 152.818 93.421 159.565C93.5784 159.522 93.7579 159.503 93.9154 159.461C95.0389 159.233 96.6144 158.767 98.4376 158.215C110.773 154.455 130.373 147.412 157.598 176.262V176.262ZM73.8441 158.411C74.806 157.128 75.6123 155.775 76.1955 154.374C78.1542 149.704 77.6124 144.566 74.5745 138.693C72.7954 135.237 70.8318 134.801 70.1848 134.656C68.2436 134.221 65.7473 134.851 63.8648 136.276C62.2092 137.525 61.3339 138.988 61.1254 140.754C60.7786 144.108 62.8302 148.688 66.8072 153.3C68.7191 155.504 71.0872 157.201 73.8441 158.411Z" fill="#F44336"/>
<path d="M161.891 137.429L161.279 151.327C161.279 151.327 124.089 144.103 118.174 122.617C117.077 118.59 115.963 114.182 115.387 109.761C115.027 107.135 114.491 102.983 113.764 100.933C110.257 100.404 105.754 101.807 100.645 103.38C96.6825 104.613 92.6077 105.889 88.1628 106.532C79.4975 107.777 71.9011 105.344 66.7321 99.6818C60.4641 92.7695 58.6091 81.7426 61.636 69.3858C63.3654 62.3375 66.9223 57.1785 70.0434 52.6392C74.5181 46.1516 76.7982 42.3598 71.5354 34.2549C65.1586 24.4519 39.3575 36.6996 24.4687 43.1935L14.4078 17.8765C21.8524 14.6184 60.1401 -1.07254 81.6566 10.0567C88.8953 13.8049 93.6277 20.1317 95.3052 28.3563C98.9948 46.2442 91.881 56.5624 86.6947 64.0908C84.2392 67.6557 82.3062 70.7814 81.2642 74.1906C74.0853 97.8778 109.653 65.2332 125.135 81.0549C134.406 90.5476 136.512 113.403 136.846 114.887C140.14 129.633 161.891 137.429 161.891 137.429V137.429Z" fill="#F48FB1"/>
<path d="M79.3394 178.117C84.2579 178.624 87.1876 178.874 93.6121 177.704C98.2369 171.622 98.4594 158.211 98.4594 158.211C96.6362 158.763 95.0604 159.252 93.9373 159.458C93.7798 159.5 93.6003 159.519 93.4429 159.561C86.4103 173.083 79.3394 178.117 79.3394 178.117V178.117Z" fill="#C92B27"/>
<path d="M100.93 206.383L89.1947 229.345L72.7284 217.538L85.0528 199.58L100.93 206.383Z" fill="#FFC107"/>
<path d="M68.9301 239.984C67.1443 251.779 56.914 263.658 55.7503 264.96L42.3081 253.113C45.3442 249.648 50.4607 242.275 51.2152 237.293L68.9301 239.984Z" fill="#FB8C00"/>
<path d="M39.4303 218.62L33.573 235.544C27.6498 233.497 21.2326 232.875 15.0141 233.78L12.4641 216.045C21.4888 214.739 30.8128 215.633 39.4303 218.62V218.62Z" fill="#03A9F4"/>
<path d="M27.8832 112.134L24.345 94.5736L47.5256 89.9036L51.0638 107.464L27.8832 112.134Z" fill="#FB8C00"/>
<path d="M34.0791 68.8156L20.8666 80.9138C14.8614 74.3642 6.89295 72.7539 6.8034 72.7524L9.98511 55.1129C11.3919 55.3602 24.0267 57.8318 34.0791 68.8156V68.8156Z" fill="#FFC107"/>
<path d="M103.173 63.1251L98.5428 47.4006L115.728 42.3422L120.358 58.0667L103.173 63.1251Z" fill="#FB8C00"/>
<path d="M247.548 60.9604L245.148 78.7249C238.824 77.8586 230.977 82.4538 229.231 83.7237L218.722 69.2163C220.151 68.165 233.224 59.0431 247.548 60.9604V60.9604Z" fill="#F44336"/>
<path d="M225.691 9.49316C224.573 16.1708 224.056 23.0152 224.19 29.7809L206.269 30.0882C206.131 22.2251 206.71 14.2843 208.026 6.53497L225.691 9.49316V9.49316Z" fill="#FB8C00"/>
<path d="M249.947 33.9845L237.41 21.1902L254.798 4.1559L267.333 16.9501L249.947 33.9845Z" fill="#F48FB1"/>
<path d="M136.117 69.0706L151.128 56.3752L163.824 71.387L148.812 84.0824L136.117 69.0706Z" fill="#F44336"/>
<defs>
<linearGradient id="paint0_linear_29_58" x1="132.073" y1="110.927" x2="170.954" y2="178.236" gradientUnits="userSpaceOnUse">
<stop offset="0.024" stop-color="#8F4700"/>
<stop offset="1" stop-color="#703E2D"/>
</linearGradient>
</defs>
</svg>
