<svg width="10" height="8" viewBox="0 0 10 8" fill="none" xmlns="http://www.w3.org/2000/svg">
<path d="M8.50765 7.42964H1.49235C1.21539 7.43004 0.943985 7.352 0.70954 7.20455C0.475096 7.05711 0.287202 6.84628 0.167607 6.59647C0.0276073 6.30008 -0.0263148 5.97032 0.0119851 5.64477C0.0502851 5.31922 0.179267 5.01097 0.384232 4.75516L3.89188 0.505991C4.02954 0.347164 4.19972 0.219783 4.39091 0.132482C4.5821 0.0451815 4.78982 0 5 0C5.21018 0 5.4179 0.0451815 5.60909 0.132482C5.80028 0.219783 5.97046 0.347164 6.10812 0.505991L9.61577 4.75516C9.82073 5.01097 9.94972 5.31922 9.98802 5.64477C10.0263 5.97032 9.97239 6.30008 9.83239 6.59647C9.7128 6.84628 9.5249 7.05711 9.29046 7.20455C9.05602 7.352 8.78461 7.43004 8.50765 7.42964Z" fill="#00FF0A"/>
</svg>
