<svg width="20" height="20" viewBox="0 0 20 20" fill="none" xmlns="http://www.w3.org/2000/svg">
<path d="M10 8.33333C10.221 8.33333 10.433 8.42113 10.5893 8.57741C10.7455 8.73369 10.8333 8.94565 10.8333 9.16667V14.1667C10.8333 14.3877 10.7455 14.5996 10.5893 14.7559C10.433 14.9122 10.221 15 10 15C9.77899 15 9.56702 14.9122 9.41074 14.7559C9.25446 14.5996 9.16667 14.3877 9.16667 14.1667V9.16667C9.16667 8.94565 9.25446 8.73369 9.41074 8.57741C9.56702 8.42113 9.77899 8.33333 10 8.33333ZM10 7.08333C10.1642 7.08333 10.3267 7.051 10.4784 6.98818C10.63 6.92536 10.7678 6.83329 10.8839 6.71722C11 6.60114 11.092 6.46334 11.1548 6.31169C11.2177 6.16003 11.25 5.99749 11.25 5.83333C11.25 5.66918 11.2177 5.50664 11.1548 5.35498C11.092 5.20332 11 5.06552 10.8839 4.94945C10.7678 4.83338 10.63 4.7413 10.4784 4.67848C10.3267 4.61567 10.1642 4.58333 10 4.58333C9.66892 4.58333 9.3514 4.71485 9.11729 4.94896C8.88319 5.18307 8.75167 5.50059 8.75167 5.83167C8.75167 6.16274 8.88319 6.48026 9.11729 6.71437C9.3514 6.94848 9.66892 7.08 10 7.08V7.08333ZM0 10C-1.95685e-08 8.68678 0.258658 7.38642 0.761205 6.17317C1.26375 4.95991 2.00035 3.85752 2.92893 2.92893C3.85752 2.00035 4.95991 1.26375 6.17317 0.761205C7.38642 0.258658 8.68678 0 10 0C11.3132 0 12.6136 0.258658 13.8268 0.761205C15.0401 1.26375 16.1425 2.00035 17.0711 2.92893C17.9997 3.85752 18.7362 4.95991 19.2388 6.17317C19.7413 7.38642 20 8.68678 20 10C20 12.6522 18.9464 15.1957 17.0711 17.0711C15.1957 18.9464 12.6522 20 10 20C7.34784 20 4.8043 18.9464 2.92893 17.0711C1.05357 15.1957 3.95203e-08 12.6522 0 10ZM10 1.66667C7.78986 1.66667 5.67025 2.54464 4.10744 4.10744C2.54464 5.67025 1.66667 7.78986 1.66667 10C1.66667 12.2101 2.54464 14.3298 4.10744 15.8926C5.67025 17.4554 7.78986 18.3333 10 18.3333C12.2101 18.3333 14.3298 17.4554 15.8926 15.8926C17.4554 14.3298 18.3333 12.2101 18.3333 10C18.3333 7.78986 17.4554 5.67025 15.8926 4.10744C14.3298 2.54464 12.2101 1.66667 10 1.66667Z" fill="#5C5C5C"/>
</svg>
