<svg width="13" height="24" viewBox="0 0 13 24" fill="none" xmlns="http://www.w3.org/2000/svg">
<path d="M12.5029 23.4717C12.8212 23.1334 13 22.6745 13 22.1961C13 21.7176 12.8212 21.2588 12.5029 20.9204L4.09834 11.9891L12.5029 3.05778C12.8122 2.71749 12.9833 2.26171 12.9794 1.78863C12.9756 1.31554 12.797 0.863001 12.4822 0.528467C12.1674 0.193933 11.7415 0.00417895 11.2964 6.85901e-05C10.8512 -0.00404367 10.4223 0.17782 10.1021 0.506491L0.497118 10.7135C0.178814 11.0518 -4.07748e-07 11.5107 -4.28661e-07 11.9891C-4.49575e-07 12.4675 0.178813 12.9264 0.497118 13.2648L10.1021 23.4717C10.4205 23.81 10.8523 24 11.3025 24C11.7527 24 12.1845 23.81 12.5029 23.4717Z" fill="white"/>
</svg>
