<svg width="10" height="8" viewBox="0 0 10 8" fill="none" xmlns="http://www.w3.org/2000/svg">
<path d="M8.50765 4.48227e-05H1.49235C1.21539 -0.000356197 0.943985 0.0776844 0.70954 0.225133C0.475096 0.372582 0.287202 0.583411 0.167607 0.833216C0.0276073 1.12961 -0.0263148 1.45937 0.0119851 1.78492C0.0502851 2.11047 0.179267 2.41871 0.384232 2.67452L3.89188 6.9237C4.02954 7.08252 4.19972 7.2099 4.39091 7.29721C4.5821 7.38451 4.78982 7.42969 5 7.42969C5.21018 7.42969 5.4179 7.38451 5.60909 7.29721C5.80028 7.2099 5.97046 7.08252 6.10812 6.9237L9.61577 2.67452C9.82073 2.41871 9.94972 2.11047 9.98802 1.78492C10.0263 1.45937 9.97239 1.12961 9.83239 0.833216C9.7128 0.583411 9.5249 0.372582 9.29046 0.225133C9.05602 0.0776844 8.78461 -0.000356197 8.50765 4.48227e-05Z" fill="#FF003E"/>
</svg>
