<svg width="122" height="122" viewBox="0 0 122 122" fill="none" xmlns="http://www.w3.org/2000/svg">
<path d="M113.121 43.005C111.096 44.0361 108.942 44.7885 106.716 45.2417C107.84 48.6893 108.423 52.2904 108.444 55.9167C108.367 61.1189 107.209 66.2482 105.045 70.9794C102.881 75.7107 99.7566 79.9405 95.8712 83.4006C95.5305 83.7165 95.2584 84.0992 95.0719 84.5248C94.8853 84.9504 94.7883 85.4098 94.7868 85.8745V103.971L79.9435 94.5161C79.5294 94.2544 79.0635 94.0855 78.578 94.0212C78.0924 93.9568 77.5986 93.9985 77.1307 94.1433C71.9075 95.7656 66.4689 96.5882 60.9996 96.5833C34.8373 96.5833 13.5551 78.3511 13.5551 55.9167C13.5551 33.4822 34.8373 15.25 60.9996 15.25C66.2203 15.2494 71.4137 16.0027 76.419 17.4867C76.6304 15.2368 77.1433 13.0255 77.944 10.9122C72.4386 9.30644 66.7343 8.48502 60.9996 8.47223C31.1096 8.47223 6.77734 29.7545 6.77734 55.9167C6.77734 82.0789 31.1096 103.361 60.9996 103.361C66.5917 103.355 72.1564 102.579 77.5373 101.057L96.2779 112.986C96.7895 113.314 97.38 113.498 97.9875 113.52C98.5949 113.542 99.197 113.399 99.7307 113.108C100.264 112.817 100.71 112.388 101.021 111.866C101.331 111.343 101.496 110.747 101.497 110.139V87.3317C105.737 83.2639 109.121 78.389 111.449 72.9939C113.777 67.5987 115.002 61.7924 115.052 55.9167C115.09 51.5381 114.438 47.181 113.121 43.005Z" fill="#E45377"/>
<path d="M37.2776 52.5278C36.3788 52.5278 35.5168 52.8848 34.8813 53.5204C34.2457 54.1559 33.8887 55.0179 33.8887 55.9167C33.8887 56.8154 34.2457 57.6774 34.8813 58.313C35.5168 58.9485 36.3788 59.3055 37.2776 59.3055H84.722C85.6208 59.3055 86.4828 58.9485 87.1183 58.313C87.7539 57.6774 88.1109 56.8154 88.1109 55.9167C88.1109 55.0179 87.7539 54.1559 87.1183 53.5204C86.4828 52.8848 85.6208 52.5278 84.722 52.5278H37.2776Z" fill="#E45377"/>
<path d="M48.2912 69.4722C47.3924 69.4722 46.5305 69.8293 45.8949 70.4648C45.2594 71.1003 44.9023 71.9623 44.9023 72.8611C44.9023 73.7599 45.2594 74.6219 45.8949 75.2574C46.5305 75.893 47.3924 76.25 48.2912 76.25H73.7079C74.6067 76.25 75.4687 75.893 76.1042 75.2574C76.7397 74.6219 77.0968 73.7599 77.0968 72.8611C77.0968 71.9623 76.7397 71.1003 76.1042 70.4648C75.4687 69.8293 74.6067 69.4722 73.7079 69.4722H48.2912Z" fill="#E45377"/>
<path d="M34.8359 38.9722C34.8359 39.871 35.193 40.733 35.8285 41.3685C36.4641 42.0041 37.326 42.3611 38.2248 42.3611H83.7715C84.3359 42.3509 84.8888 42.1999 85.38 41.9217C85.8712 41.6435 86.2852 41.2471 86.5843 40.7683C84.5913 39.3037 82.8219 37.5571 81.3315 35.5833H38.2248C37.326 35.5833 36.4641 35.9404 35.8285 36.5759C35.193 37.2115 34.8359 38.0734 34.8359 38.9722Z" fill="#E45377"/>
<path d="M101.667 37.2778C111.025 37.2778 118.612 29.6915 118.612 20.3333C118.612 10.9752 111.025 3.38889 101.667 3.38889C92.3089 3.38889 84.7227 10.9752 84.7227 20.3333C84.7227 29.6915 92.3089 37.2778 101.667 37.2778Z" fill="#E45377"/>
</svg>
