<svg width="109" height="104" viewBox="0 0 109 104" fill="none" xmlns="http://www.w3.org/2000/svg">
<path d="M92.9306 68.1333C96.3115 60.1176 97.0898 51.2462 95.1559 42.7663C93.2221 34.2864 88.6735 26.6245 82.1495 20.8578C75.6256 15.0911 67.4544 11.5097 58.7849 10.6169C50.1153 9.72419 41.3833 11.5651 33.8166 15.8808L28.6477 6.84975C36.5555 2.34 45.5101 -0.0217444 54.6183 0.000150864C63.7264 0.0220461 72.6696 2.42682 80.5555 6.97453C103.951 20.451 112.913 49.3068 102.007 73.3689L109 77.3931L87.298 88.9043L86.4382 64.395L92.9306 68.1333ZM16.0746 35.8667C12.6937 43.8824 11.9155 52.7538 13.8493 61.2337C15.7831 69.7136 20.3317 77.3755 26.8557 83.1422C33.3796 88.9089 41.5508 92.4903 50.2204 93.3831C58.8899 94.2758 67.6219 92.4349 75.1886 88.1192L80.3575 97.1503C72.4497 101.66 63.4951 104.022 54.3869 104C45.2788 103.978 36.3356 101.573 28.4497 97.0255C5.05426 83.549 -3.90793 54.6932 6.9978 30.6311L0 26.6121L21.702 15.101L22.5618 39.6102L16.0694 35.8719L16.0746 35.8667ZM61.8756 66.7035L47.1244 52L32.3889 66.7035L25.0212 59.3517L47.1296 37.2965L61.8704 52L76.6111 37.2965L83.9788 44.6483L61.8704 66.7035H61.8756Z" fill="#E45377"/>
</svg>
