<svg width="156" height="156" viewBox="0 0 156 156" fill="none" xmlns="http://www.w3.org/2000/svg">
<path d="M22.8 36.6C26.46 36.6 29.9701 35.1461 32.5581 32.5581C35.1461 29.9701 36.6 26.46 36.6 22.8C36.6 19.14 35.1461 15.6299 32.5581 13.0419C29.9701 10.4539 26.46 9 22.8 9C19.14 9 15.6299 10.4539 13.0419 13.0419C10.4539 15.6299 9 19.14 9 22.8C9 26.46 10.4539 29.9701 13.0419 32.5581C15.6299 35.1461 19.14 36.6 22.8 36.6V36.6ZM29.7 140.1C35.19 140.1 40.4551 137.919 44.3371 134.037C48.2191 130.155 50.4 124.89 50.4 119.4C50.4 113.91 48.2191 108.645 44.3371 104.763C40.4551 100.881 35.19 98.7 29.7 98.7C24.21 98.7 18.9449 100.881 15.0629 104.763C11.1809 108.645 9 113.91 9 119.4C9 124.89 11.1809 130.155 15.0629 134.037C18.9449 137.919 24.21 140.1 29.7 140.1V140.1ZM126.3 147C131.79 147 137.055 144.819 140.937 140.937C144.819 137.055 147 131.79 147 126.3C147 120.81 144.819 115.545 140.937 111.663C137.055 107.781 131.79 105.6 126.3 105.6C120.81 105.6 115.545 107.781 111.663 111.663C107.781 115.545 105.6 120.81 105.6 126.3C105.6 131.79 107.781 137.055 111.663 140.937C115.545 144.819 120.81 147 126.3 147ZM71.1 91.8C78.42 91.8 85.4401 88.8922 90.6161 83.7161C95.7922 78.5401 98.7 71.52 98.7 64.2C98.7 56.88 95.7922 49.8599 90.6161 44.6839C85.4401 39.5078 78.42 36.6 71.1 36.6C63.78 36.6 56.7599 39.5078 51.5839 44.6839C46.4078 49.8599 43.5 56.88 43.5 64.2C43.5 71.52 46.4078 78.5401 51.5839 83.7161C56.7599 88.8922 63.78 91.8 71.1 91.8V91.8ZM112.5 36.6C116.16 36.6 119.67 35.1461 122.258 32.5581C124.846 29.9701 126.3 26.46 126.3 22.8C126.3 19.14 124.846 15.6299 122.258 13.0419C119.67 10.4539 116.16 9 112.5 9C108.84 9 105.33 10.4539 102.742 13.0419C100.154 15.6299 98.7 19.14 98.7 22.8C98.7 26.46 100.154 29.9701 102.742 32.5581C105.33 35.1461 108.84 36.6 112.5 36.6V36.6Z" stroke="#E45377" stroke-width="17" stroke-linecap="round" stroke-linejoin="round"/>
<path d="M33.1504 33.15L46.9504 46.95M98.7004 36.6L91.8004 43.5M112.5 110.775L91.8004 84.9M43.5004 102.15L57.3004 88.35" stroke="#E45377" stroke-width="17" stroke-linecap="round" stroke-linejoin="round"/>
</svg>
