<svg width="13" height="24" viewBox="0 0 13 24" fill="none" xmlns="http://www.w3.org/2000/svg">
<path d="M0.497119 23.4717C0.178814 23.1334 -5.79388e-08 22.6745 -7.8852e-08 22.1961C-9.97651e-08 21.7176 0.178814 21.2588 0.497119 20.9204L8.90166 11.9891L0.497118 3.05778C0.187834 2.71749 0.0166956 2.26171 0.0205641 1.78863C0.0244326 1.31554 0.202998 0.863001 0.5178 0.528467C0.832602 0.193933 1.25845 0.00417895 1.70363 6.85901e-05C2.14881 -0.00404367 2.5777 0.17782 2.89793 0.506491L12.5029 10.7135C12.8212 11.0518 13 11.5107 13 11.9891C13 12.4675 12.8212 12.9264 12.5029 13.2648L2.89793 23.4717C2.57953 23.81 2.14774 24 1.69752 24C1.24731 24 0.81552 23.81 0.497119 23.4717Z" fill="white"/>
</svg>
