<svg width="116" height="86" viewBox="0 0 116 86" fill="none" xmlns="http://www.w3.org/2000/svg">
<path d="M0 17.9167C0 13.1649 1.90959 8.6077 5.30869 5.24767C8.70779 1.88764 13.318 0 18.125 0H97.875C102.682 0 107.292 1.88764 110.691 5.24767C114.09 8.6077 116 13.1649 116 17.9167V68.0833C116 72.8351 114.09 77.3923 110.691 80.7523C107.292 84.1124 102.682 86 97.875 86H18.125C13.318 86 8.70779 84.1124 5.30869 80.7523C1.90959 77.3923 0 72.8351 0 68.0833V17.9167ZM18.125 7.16667C15.2408 7.16667 12.4747 8.29925 10.4352 10.3153C8.39576 12.3313 7.25 15.0656 7.25 17.9167V27.2333H108.75V17.9167C108.75 15.0656 107.604 12.3313 105.565 10.3153C103.525 8.29925 100.759 7.16667 97.875 7.16667H18.125ZM7.25 68.0833C7.25 70.9344 8.39576 73.6687 10.4352 75.6847C12.4747 77.7007 15.2408 78.8333 18.125 78.8333H97.875C100.759 78.8333 103.525 77.7007 105.565 75.6847C107.604 73.6687 108.75 70.9344 108.75 68.0833V34.4H7.25V68.0833ZM79.025 58.7667C78.0636 58.7667 77.1416 59.1442 76.4617 59.8162C75.7819 60.4882 75.4 61.3996 75.4 62.35C75.4 63.3004 75.7819 64.2118 76.4617 64.8838C77.1416 65.5558 78.0636 65.9333 79.025 65.9333H94.975C95.9364 65.9333 96.8585 65.5558 97.5383 64.8838C98.2181 64.2118 98.6 63.3004 98.6 62.35C98.6 61.3996 98.2181 60.4882 97.5383 59.8162C96.8585 59.1442 95.9364 58.7667 94.975 58.7667H79.025Z" fill="#E45377"/>
</svg>
