<svg width="124" height="125" viewBox="0 0 124 125" fill="none" xmlns="http://www.w3.org/2000/svg">
<path d="M120.32 59.3271L65.5856 4.59302C63.2921 2.29952 60.1308 0.997803 56.8455 0.997803H12.4012C5.58269 0.997803 0.00390625 6.57659 0.00390625 13.3951V57.8394C0.00390625 61.1247 1.30562 64.286 3.66111 66.5795L58.3952 121.314C63.2301 126.149 71.1024 126.149 75.9373 121.314L120.382 76.8693C125.217 72.0343 125.217 64.224 120.32 59.3271ZM67.1353 112.573L12.4012 57.8394V13.3951H56.8455L111.58 68.1292L67.1353 112.573Z" fill="#E45377"/>
<path d="M27.8976 38.1897C33.0327 38.1897 37.1956 34.0268 37.1956 28.8917C37.1956 23.7566 33.0327 19.5938 27.8976 19.5938C22.7625 19.5938 18.5996 23.7566 18.5996 28.8917C18.5996 34.0268 22.7625 38.1897 27.8976 38.1897Z" fill="#E45377"/>
</svg>
