<svg width="24" height="20" viewBox="0 0 24 20" fill="none" xmlns="http://www.w3.org/2000/svg">
<path d="M21.1868 3.08383C22.2641 2.42253 22.9774 1.51992 23.3267 0.37198C22.3428 0.904094 21.287 1.29076 20.1922 1.51992C19.2549 0.511972 18.0683 0 16.6457 0C15.2552 0 14.0806 0.487973 13.1219 1.43725C12.659 1.88803 12.293 2.42859 12.0463 3.02581C11.7996 3.62302 11.6775 4.26431 11.6874 4.91039C11.6874 5.32237 11.7393 5.69035 11.8433 6.00233C7.74224 5.86234 4.34776 4.1611 1.67324 0.886617C1.21993 1.68791 0.993278 2.50386 0.993278 3.34781C0.993278 5.08239 1.72524 6.45697 3.18649 7.46625C2.3532 7.39559 1.61858 7.18494 0.993278 6.83962C0.993278 8.07822 1.35726 9.11283 2.08655 10.0234C2.79499 10.9108 3.79336 11.5202 4.90639 11.7447C4.49042 11.8513 4.05177 11.902 3.60113 11.902C3.18516 11.902 2.89051 11.8673 2.71585 11.7913C3.0225 12.8006 3.60113 13.6192 4.43709 14.2459C5.26349 14.8734 6.26875 15.2204 7.30626 15.2365C5.53036 16.6297 3.49981 17.319 1.2026 17.319C0.639964 17.319 0.24132 17.311 0 17.2684C2.26254 18.7376 4.78107 19.4669 7.56758 19.4669C10.4194 19.4669 12.9393 18.7443 15.1325 17.299C17.3257 15.8618 18.9443 14.0886 19.9842 12.0007C21.0126 9.98039 21.5481 7.74533 21.5468 5.47836V4.8544C22.5054 4.14767 23.3352 3.2813 24 2.29321C23.1022 2.68233 22.1559 2.94828 21.1868 3.08383Z" fill="white"/>
</svg>
